<mxfile host="app.diagrams.net" agent="Mozilla/5.0 (Windows NT 10.0; Win64; x64) AppleWebKit/537.36 (KHTML, like Gecko) Chrome/137.0.0.0 Safari/537.36" version="27.1.4">
  <diagram name="Page-1" id="Ch6gstcXWHtRjHLDsmqF">
    <mxGraphModel dx="3065" dy="1043" grid="1" gridSize="10" guides="1" tooltips="1" connect="1" arrows="1" fold="1" page="1" pageScale="1" pageWidth="1100" pageHeight="850" math="0" shadow="0">
      <root>
        <mxCell id="0" />
        <mxCell id="1" parent="0" />
        <mxCell id="4imyPmRk3QcvIKr00t5q-29" value="User" style="shape=table;startSize=30;container=1;collapsible=1;childLayout=tableLayout;fixedRows=1;rowLines=0;fontStyle=1;align=center;resizeLast=1;html=1;labelBackgroundColor=none;fillColor=#A8DADC;strokeColor=#457B9D;fontColor=#1D3557;rounded=1;" parent="1" vertex="1">
          <mxGeometry x="-360" y="200" width="180" height="140" as="geometry" />
        </mxCell>
        <mxCell id="4imyPmRk3QcvIKr00t5q-30" value="" style="shape=tableRow;horizontal=0;startSize=0;swimlaneHead=0;swimlaneBody=0;fillColor=none;collapsible=0;dropTarget=0;points=[[0,0.5],[1,0.5]];portConstraint=eastwest;top=0;left=0;right=0;bottom=1;labelBackgroundColor=none;strokeColor=#457B9D;fontColor=#1D3557;rounded=1;" parent="4imyPmRk3QcvIKr00t5q-29" vertex="1">
          <mxGeometry y="30" width="180" height="30" as="geometry" />
        </mxCell>
        <mxCell id="4imyPmRk3QcvIKr00t5q-31" value="PK" style="shape=partialRectangle;connectable=0;fillColor=none;top=0;left=0;bottom=0;right=0;fontStyle=1;overflow=hidden;whiteSpace=wrap;html=1;labelBackgroundColor=none;strokeColor=#457B9D;fontColor=#1D3557;rounded=1;" parent="4imyPmRk3QcvIKr00t5q-30" vertex="1">
          <mxGeometry width="30" height="30" as="geometry">
            <mxRectangle width="30" height="30" as="alternateBounds" />
          </mxGeometry>
        </mxCell>
        <mxCell id="4imyPmRk3QcvIKr00t5q-32" value="User_ID" style="shape=partialRectangle;connectable=0;fillColor=none;top=0;left=0;bottom=0;right=0;align=left;spacingLeft=6;fontStyle=5;overflow=hidden;whiteSpace=wrap;html=1;labelBackgroundColor=none;strokeColor=#457B9D;fontColor=#1D3557;rounded=1;" parent="4imyPmRk3QcvIKr00t5q-30" vertex="1">
          <mxGeometry x="30" width="150" height="30" as="geometry">
            <mxRectangle width="150" height="30" as="alternateBounds" />
          </mxGeometry>
        </mxCell>
        <mxCell id="4imyPmRk3QcvIKr00t5q-33" value="" style="shape=tableRow;horizontal=0;startSize=0;swimlaneHead=0;swimlaneBody=0;fillColor=none;collapsible=0;dropTarget=0;points=[[0,0.5],[1,0.5]];portConstraint=eastwest;top=0;left=0;right=0;bottom=0;labelBackgroundColor=none;strokeColor=#457B9D;fontColor=#1D3557;rounded=1;" parent="4imyPmRk3QcvIKr00t5q-29" vertex="1">
          <mxGeometry y="60" width="180" height="20" as="geometry" />
        </mxCell>
        <mxCell id="4imyPmRk3QcvIKr00t5q-34" value="" style="shape=partialRectangle;connectable=0;fillColor=none;top=0;left=0;bottom=0;right=0;editable=1;overflow=hidden;whiteSpace=wrap;html=1;labelBackgroundColor=none;strokeColor=#457B9D;fontColor=#1D3557;rounded=1;" parent="4imyPmRk3QcvIKr00t5q-33" vertex="1">
          <mxGeometry width="30" height="20" as="geometry">
            <mxRectangle width="30" height="20" as="alternateBounds" />
          </mxGeometry>
        </mxCell>
        <mxCell id="4imyPmRk3QcvIKr00t5q-35" value="username" style="shape=partialRectangle;connectable=0;fillColor=none;top=0;left=0;bottom=0;right=0;align=left;spacingLeft=6;overflow=hidden;whiteSpace=wrap;html=1;labelBackgroundColor=none;strokeColor=#457B9D;fontColor=#1D3557;rounded=1;" parent="4imyPmRk3QcvIKr00t5q-33" vertex="1">
          <mxGeometry x="30" width="150" height="20" as="geometry">
            <mxRectangle width="150" height="20" as="alternateBounds" />
          </mxGeometry>
        </mxCell>
        <mxCell id="4imyPmRk3QcvIKr00t5q-36" value="" style="shape=tableRow;horizontal=0;startSize=0;swimlaneHead=0;swimlaneBody=0;fillColor=none;collapsible=0;dropTarget=0;points=[[0,0.5],[1,0.5]];portConstraint=eastwest;top=0;left=0;right=0;bottom=0;labelBackgroundColor=none;strokeColor=#457B9D;fontColor=#1D3557;rounded=1;" parent="4imyPmRk3QcvIKr00t5q-29" vertex="1">
          <mxGeometry y="80" width="180" height="30" as="geometry" />
        </mxCell>
        <mxCell id="4imyPmRk3QcvIKr00t5q-37" value="" style="shape=partialRectangle;connectable=0;fillColor=none;top=0;left=0;bottom=0;right=0;editable=1;overflow=hidden;whiteSpace=wrap;html=1;labelBackgroundColor=none;strokeColor=#457B9D;fontColor=#1D3557;rounded=1;" parent="4imyPmRk3QcvIKr00t5q-36" vertex="1">
          <mxGeometry width="30" height="30" as="geometry">
            <mxRectangle width="30" height="30" as="alternateBounds" />
          </mxGeometry>
        </mxCell>
        <mxCell id="4imyPmRk3QcvIKr00t5q-38" value="password_hash" style="shape=partialRectangle;connectable=0;fillColor=none;top=0;left=0;bottom=0;right=0;align=left;spacingLeft=6;overflow=hidden;whiteSpace=wrap;html=1;labelBackgroundColor=none;strokeColor=#457B9D;fontColor=#1D3557;rounded=1;" parent="4imyPmRk3QcvIKr00t5q-36" vertex="1">
          <mxGeometry x="30" width="150" height="30" as="geometry">
            <mxRectangle width="150" height="30" as="alternateBounds" />
          </mxGeometry>
        </mxCell>
        <mxCell id="4imyPmRk3QcvIKr00t5q-39" value="" style="shape=tableRow;horizontal=0;startSize=0;swimlaneHead=0;swimlaneBody=0;fillColor=none;collapsible=0;dropTarget=0;points=[[0,0.5],[1,0.5]];portConstraint=eastwest;top=0;left=0;right=0;bottom=0;labelBackgroundColor=none;strokeColor=#457B9D;fontColor=#1D3557;rounded=1;" parent="4imyPmRk3QcvIKr00t5q-29" vertex="1">
          <mxGeometry y="110" width="180" height="30" as="geometry" />
        </mxCell>
        <mxCell id="4imyPmRk3QcvIKr00t5q-40" value="" style="shape=partialRectangle;connectable=0;fillColor=none;top=0;left=0;bottom=0;right=0;editable=1;overflow=hidden;whiteSpace=wrap;html=1;labelBackgroundColor=none;strokeColor=#457B9D;fontColor=#1D3557;rounded=1;" parent="4imyPmRk3QcvIKr00t5q-39" vertex="1">
          <mxGeometry width="30" height="30" as="geometry">
            <mxRectangle width="30" height="30" as="alternateBounds" />
          </mxGeometry>
        </mxCell>
        <mxCell id="4imyPmRk3QcvIKr00t5q-41" value="created_at" style="shape=partialRectangle;connectable=0;fillColor=none;top=0;left=0;bottom=0;right=0;align=left;spacingLeft=6;overflow=hidden;whiteSpace=wrap;html=1;labelBackgroundColor=none;strokeColor=#457B9D;fontColor=#1D3557;rounded=1;" parent="4imyPmRk3QcvIKr00t5q-39" vertex="1">
          <mxGeometry x="30" width="150" height="30" as="geometry">
            <mxRectangle width="150" height="30" as="alternateBounds" />
          </mxGeometry>
        </mxCell>
        <mxCell id="4imyPmRk3QcvIKr00t5q-78" value="" style="group;labelBackgroundColor=none;fontColor=#1D3557;rounded=1;" parent="1" vertex="1" connectable="0">
          <mxGeometry x="240" y="200" width="185" height="270" as="geometry" />
        </mxCell>
        <mxCell id="4imyPmRk3QcvIKr00t5q-43" value="Task" style="shape=table;startSize=30;container=1;collapsible=1;childLayout=tableLayout;fixedRows=1;rowLines=0;fontStyle=1;align=center;resizeLast=1;html=1;labelBackgroundColor=none;fillColor=#A8DADC;strokeColor=#457B9D;fontColor=#1D3557;rounded=1;" parent="4imyPmRk3QcvIKr00t5q-78" vertex="1">
          <mxGeometry x="-90" width="180" height="240" as="geometry">
            <mxRectangle x="460" y="70" width="70" height="30" as="alternateBounds" />
          </mxGeometry>
        </mxCell>
        <mxCell id="4imyPmRk3QcvIKr00t5q-44" value="" style="shape=tableRow;horizontal=0;startSize=0;swimlaneHead=0;swimlaneBody=0;fillColor=none;collapsible=0;dropTarget=0;points=[[0,0.5],[1,0.5]];portConstraint=eastwest;top=0;left=0;right=0;bottom=1;labelBackgroundColor=none;strokeColor=#457B9D;fontColor=#1D3557;rounded=1;" parent="4imyPmRk3QcvIKr00t5q-43" vertex="1">
          <mxGeometry y="30" width="180" height="30" as="geometry" />
        </mxCell>
        <mxCell id="4imyPmRk3QcvIKr00t5q-45" value="PK" style="shape=partialRectangle;connectable=0;fillColor=none;top=0;left=0;bottom=0;right=0;fontStyle=1;overflow=hidden;whiteSpace=wrap;html=1;labelBackgroundColor=none;strokeColor=#457B9D;fontColor=#1D3557;rounded=1;" parent="4imyPmRk3QcvIKr00t5q-44" vertex="1">
          <mxGeometry width="30" height="30" as="geometry">
            <mxRectangle width="30" height="30" as="alternateBounds" />
          </mxGeometry>
        </mxCell>
        <mxCell id="4imyPmRk3QcvIKr00t5q-46" value="Task_ID" style="shape=partialRectangle;connectable=0;fillColor=none;top=0;left=0;bottom=0;right=0;align=left;spacingLeft=6;fontStyle=5;overflow=hidden;whiteSpace=wrap;html=1;labelBackgroundColor=none;strokeColor=#457B9D;fontColor=#1D3557;rounded=1;" parent="4imyPmRk3QcvIKr00t5q-44" vertex="1">
          <mxGeometry x="30" width="150" height="30" as="geometry">
            <mxRectangle width="150" height="30" as="alternateBounds" />
          </mxGeometry>
        </mxCell>
        <mxCell id="4imyPmRk3QcvIKr00t5q-47" value="" style="shape=tableRow;horizontal=0;startSize=0;swimlaneHead=0;swimlaneBody=0;fillColor=none;collapsible=0;dropTarget=0;points=[[0,0.5],[1,0.5]];portConstraint=eastwest;top=0;left=0;right=0;bottom=0;labelBackgroundColor=none;strokeColor=#457B9D;fontColor=#1D3557;rounded=1;" parent="4imyPmRk3QcvIKr00t5q-43" vertex="1">
          <mxGeometry y="60" width="180" height="30" as="geometry" />
        </mxCell>
        <mxCell id="4imyPmRk3QcvIKr00t5q-48" value="FK" style="shape=partialRectangle;connectable=0;fillColor=none;top=0;left=0;bottom=0;right=0;editable=1;overflow=hidden;whiteSpace=wrap;html=1;labelBackgroundColor=none;strokeColor=#457B9D;fontColor=#1D3557;rounded=1;" parent="4imyPmRk3QcvIKr00t5q-47" vertex="1">
          <mxGeometry width="30" height="30" as="geometry">
            <mxRectangle width="30" height="30" as="alternateBounds" />
          </mxGeometry>
        </mxCell>
        <mxCell id="4imyPmRk3QcvIKr00t5q-49" value="User_ID" style="shape=partialRectangle;connectable=0;fillColor=none;top=0;left=0;bottom=0;right=0;align=left;spacingLeft=6;overflow=hidden;whiteSpace=wrap;html=1;labelBackgroundColor=none;strokeColor=#457B9D;fontColor=#1D3557;rounded=1;" parent="4imyPmRk3QcvIKr00t5q-47" vertex="1">
          <mxGeometry x="30" width="150" height="30" as="geometry">
            <mxRectangle width="150" height="30" as="alternateBounds" />
          </mxGeometry>
        </mxCell>
        <mxCell id="4imyPmRk3QcvIKr00t5q-50" value="" style="shape=tableRow;horizontal=0;startSize=0;swimlaneHead=0;swimlaneBody=0;fillColor=none;collapsible=0;dropTarget=0;points=[[0,0.5],[1,0.5]];portConstraint=eastwest;top=0;left=0;right=0;bottom=0;labelBackgroundColor=none;strokeColor=#457B9D;fontColor=#1D3557;rounded=1;" parent="4imyPmRk3QcvIKr00t5q-43" vertex="1">
          <mxGeometry y="90" width="180" height="30" as="geometry" />
        </mxCell>
        <mxCell id="4imyPmRk3QcvIKr00t5q-51" value="" style="shape=partialRectangle;connectable=0;fillColor=none;top=0;left=0;bottom=0;right=0;editable=1;overflow=hidden;whiteSpace=wrap;html=1;labelBackgroundColor=none;strokeColor=#457B9D;fontColor=#1D3557;rounded=1;" parent="4imyPmRk3QcvIKr00t5q-50" vertex="1">
          <mxGeometry width="30" height="30" as="geometry">
            <mxRectangle width="30" height="30" as="alternateBounds" />
          </mxGeometry>
        </mxCell>
        <mxCell id="4imyPmRk3QcvIKr00t5q-52" value="title" style="shape=partialRectangle;connectable=0;fillColor=none;top=0;left=0;bottom=0;right=0;align=left;spacingLeft=6;overflow=hidden;whiteSpace=wrap;html=1;labelBackgroundColor=none;strokeColor=#457B9D;fontColor=#1D3557;rounded=1;" parent="4imyPmRk3QcvIKr00t5q-50" vertex="1">
          <mxGeometry x="30" width="150" height="30" as="geometry">
            <mxRectangle width="150" height="30" as="alternateBounds" />
          </mxGeometry>
        </mxCell>
        <mxCell id="4imyPmRk3QcvIKr00t5q-53" value="" style="shape=tableRow;horizontal=0;startSize=0;swimlaneHead=0;swimlaneBody=0;fillColor=none;collapsible=0;dropTarget=0;points=[[0,0.5],[1,0.5]];portConstraint=eastwest;top=0;left=0;right=0;bottom=0;labelBackgroundColor=none;strokeColor=#457B9D;fontColor=#1D3557;rounded=1;" parent="4imyPmRk3QcvIKr00t5q-43" vertex="1">
          <mxGeometry y="120" width="180" height="20" as="geometry" />
        </mxCell>
        <mxCell id="4imyPmRk3QcvIKr00t5q-54" value="" style="shape=partialRectangle;connectable=0;fillColor=none;top=0;left=0;bottom=0;right=0;editable=1;overflow=hidden;whiteSpace=wrap;html=1;labelBackgroundColor=none;strokeColor=#457B9D;fontColor=#1D3557;rounded=1;" parent="4imyPmRk3QcvIKr00t5q-53" vertex="1">
          <mxGeometry width="30" height="20" as="geometry">
            <mxRectangle width="30" height="20" as="alternateBounds" />
          </mxGeometry>
        </mxCell>
        <mxCell id="4imyPmRk3QcvIKr00t5q-55" value="&lt;font face=&quot;Helvetica&quot;&gt;sessions&lt;/font&gt;" style="shape=partialRectangle;connectable=0;fillColor=none;top=0;left=0;bottom=0;right=0;align=left;spacingLeft=6;overflow=hidden;whiteSpace=wrap;html=1;labelBackgroundColor=none;strokeColor=#457B9D;fontColor=#1D3557;rounded=1;" parent="4imyPmRk3QcvIKr00t5q-53" vertex="1">
          <mxGeometry x="30" width="150" height="20" as="geometry">
            <mxRectangle width="150" height="20" as="alternateBounds" />
          </mxGeometry>
        </mxCell>
        <mxCell id="4imyPmRk3QcvIKr00t5q-56" value="notes" style="text;html=1;align=center;verticalAlign=middle;resizable=0;points=[];autosize=1;strokeColor=none;fillColor=none;labelBackgroundColor=none;fontColor=#1D3557;rounded=1;" parent="4imyPmRk3QcvIKr00t5q-78" vertex="1">
          <mxGeometry x="-65" y="140" width="50" height="30" as="geometry" />
        </mxCell>
        <mxCell id="4imyPmRk3QcvIKr00t5q-59" value="priority&amp;nbsp;" style="text;html=1;align=center;verticalAlign=middle;resizable=0;points=[];autosize=1;strokeColor=none;fillColor=none;labelBackgroundColor=none;fontColor=#1D3557;rounded=1;" parent="4imyPmRk3QcvIKr00t5q-78" vertex="1">
          <mxGeometry x="-65" y="170" width="60" height="30" as="geometry" />
        </mxCell>
        <mxCell id="4imyPmRk3QcvIKr00t5q-60" value="created_at" style="text;html=1;align=center;verticalAlign=middle;resizable=0;points=[];autosize=1;strokeColor=none;fillColor=none;labelBackgroundColor=none;fontColor=#1D3557;rounded=1;" parent="4imyPmRk3QcvIKr00t5q-78" vertex="1">
          <mxGeometry x="-65" y="195" width="80" height="30" as="geometry" />
        </mxCell>
        <mxCell id="4imyPmRk3QcvIKr00t5q-77" value="" style="endArrow=none;html=1;rounded=1;labelBackgroundColor=none;strokeColor=#457B9D;fontColor=default;" parent="4imyPmRk3QcvIKr00t5q-78" edge="1">
          <mxGeometry width="50" height="50" relative="1" as="geometry">
            <mxPoint x="-60" y="240" as="sourcePoint" />
            <mxPoint x="-60" y="140" as="targetPoint" />
          </mxGeometry>
        </mxCell>
        <mxCell id="4imyPmRk3QcvIKr00t5q-99" value="" style="group;labelBackgroundColor=none;fontColor=#1D3557;rounded=1;" parent="1" vertex="1" connectable="0">
          <mxGeometry x="-360" y="600" width="180" height="270" as="geometry" />
        </mxCell>
        <mxCell id="4imyPmRk3QcvIKr00t5q-79" value="Session" style="shape=table;startSize=30;container=1;collapsible=1;childLayout=tableLayout;fixedRows=1;rowLines=0;fontStyle=1;align=center;resizeLast=1;html=1;labelBackgroundColor=none;fillColor=#A8DADC;strokeColor=#457B9D;fontColor=#1D3557;rounded=1;" parent="4imyPmRk3QcvIKr00t5q-99" vertex="1">
          <mxGeometry width="180" height="270" as="geometry" />
        </mxCell>
        <mxCell id="4imyPmRk3QcvIKr00t5q-80" value="" style="shape=tableRow;horizontal=0;startSize=0;swimlaneHead=0;swimlaneBody=0;fillColor=none;collapsible=0;dropTarget=0;points=[[0,0.5],[1,0.5]];portConstraint=eastwest;top=0;left=0;right=0;bottom=1;labelBackgroundColor=none;strokeColor=#457B9D;fontColor=#1D3557;rounded=1;" parent="4imyPmRk3QcvIKr00t5q-79" vertex="1">
          <mxGeometry y="30" width="180" height="30" as="geometry" />
        </mxCell>
        <mxCell id="4imyPmRk3QcvIKr00t5q-81" value="PK" style="shape=partialRectangle;connectable=0;fillColor=none;top=0;left=0;bottom=0;right=0;fontStyle=1;overflow=hidden;whiteSpace=wrap;html=1;labelBackgroundColor=none;strokeColor=#457B9D;fontColor=#1D3557;rounded=1;" parent="4imyPmRk3QcvIKr00t5q-80" vertex="1">
          <mxGeometry width="30" height="30" as="geometry">
            <mxRectangle width="30" height="30" as="alternateBounds" />
          </mxGeometry>
        </mxCell>
        <mxCell id="4imyPmRk3QcvIKr00t5q-82" value="Session_ID" style="shape=partialRectangle;connectable=0;fillColor=none;top=0;left=0;bottom=0;right=0;align=left;spacingLeft=6;fontStyle=5;overflow=hidden;whiteSpace=wrap;html=1;labelBackgroundColor=none;strokeColor=#457B9D;fontColor=#1D3557;rounded=1;" parent="4imyPmRk3QcvIKr00t5q-80" vertex="1">
          <mxGeometry x="30" width="150" height="30" as="geometry">
            <mxRectangle width="150" height="30" as="alternateBounds" />
          </mxGeometry>
        </mxCell>
        <mxCell id="4imyPmRk3QcvIKr00t5q-83" value="" style="shape=tableRow;horizontal=0;startSize=0;swimlaneHead=0;swimlaneBody=0;fillColor=none;collapsible=0;dropTarget=0;points=[[0,0.5],[1,0.5]];portConstraint=eastwest;top=0;left=0;right=0;bottom=0;labelBackgroundColor=none;strokeColor=#457B9D;fontColor=#1D3557;rounded=1;" parent="4imyPmRk3QcvIKr00t5q-79" vertex="1">
          <mxGeometry y="60" width="180" height="30" as="geometry" />
        </mxCell>
        <mxCell id="4imyPmRk3QcvIKr00t5q-84" value="FK" style="shape=partialRectangle;connectable=0;fillColor=none;top=0;left=0;bottom=0;right=0;editable=1;overflow=hidden;whiteSpace=wrap;html=1;labelBackgroundColor=none;strokeColor=#457B9D;fontColor=#1D3557;rounded=1;" parent="4imyPmRk3QcvIKr00t5q-83" vertex="1">
          <mxGeometry width="30" height="30" as="geometry">
            <mxRectangle width="30" height="30" as="alternateBounds" />
          </mxGeometry>
        </mxCell>
        <mxCell id="4imyPmRk3QcvIKr00t5q-85" value="User_ID" style="shape=partialRectangle;connectable=0;fillColor=none;top=0;left=0;bottom=0;right=0;align=left;spacingLeft=6;overflow=hidden;whiteSpace=wrap;html=1;labelBackgroundColor=none;strokeColor=#457B9D;fontColor=#1D3557;rounded=1;" parent="4imyPmRk3QcvIKr00t5q-83" vertex="1">
          <mxGeometry x="30" width="150" height="30" as="geometry">
            <mxRectangle width="150" height="30" as="alternateBounds" />
          </mxGeometry>
        </mxCell>
        <mxCell id="4imyPmRk3QcvIKr00t5q-86" value="" style="shape=tableRow;horizontal=0;startSize=0;swimlaneHead=0;swimlaneBody=0;fillColor=none;collapsible=0;dropTarget=0;points=[[0,0.5],[1,0.5]];portConstraint=eastwest;top=0;left=0;right=0;bottom=0;labelBackgroundColor=none;strokeColor=#457B9D;fontColor=#1D3557;rounded=1;" parent="4imyPmRk3QcvIKr00t5q-79" vertex="1">
          <mxGeometry y="90" width="180" height="30" as="geometry" />
        </mxCell>
        <mxCell id="4imyPmRk3QcvIKr00t5q-87" value="FK" style="shape=partialRectangle;connectable=0;fillColor=none;top=0;left=0;bottom=0;right=0;editable=1;overflow=hidden;whiteSpace=wrap;html=1;labelBackgroundColor=none;strokeColor=#457B9D;fontColor=#1D3557;rounded=1;" parent="4imyPmRk3QcvIKr00t5q-86" vertex="1">
          <mxGeometry width="30" height="30" as="geometry">
            <mxRectangle width="30" height="30" as="alternateBounds" />
          </mxGeometry>
        </mxCell>
        <mxCell id="4imyPmRk3QcvIKr00t5q-88" value="Task_ID" style="shape=partialRectangle;connectable=0;fillColor=none;top=0;left=0;bottom=0;right=0;align=left;spacingLeft=6;overflow=hidden;whiteSpace=wrap;html=1;labelBackgroundColor=none;strokeColor=#457B9D;fontColor=#1D3557;rounded=1;" parent="4imyPmRk3QcvIKr00t5q-86" vertex="1">
          <mxGeometry x="30" width="150" height="30" as="geometry">
            <mxRectangle width="150" height="30" as="alternateBounds" />
          </mxGeometry>
        </mxCell>
        <mxCell id="4imyPmRk3QcvIKr00t5q-89" value="" style="shape=tableRow;horizontal=0;startSize=0;swimlaneHead=0;swimlaneBody=0;fillColor=none;collapsible=0;dropTarget=0;points=[[0,0.5],[1,0.5]];portConstraint=eastwest;top=0;left=0;right=0;bottom=0;labelBackgroundColor=none;strokeColor=#457B9D;fontColor=#1D3557;rounded=1;" parent="4imyPmRk3QcvIKr00t5q-79" vertex="1">
          <mxGeometry y="120" width="180" height="30" as="geometry" />
        </mxCell>
        <mxCell id="4imyPmRk3QcvIKr00t5q-90" value="" style="shape=partialRectangle;connectable=0;fillColor=none;top=0;left=0;bottom=0;right=0;editable=1;overflow=hidden;whiteSpace=wrap;html=1;labelBackgroundColor=none;strokeColor=#457B9D;fontColor=#1D3557;rounded=1;" parent="4imyPmRk3QcvIKr00t5q-89" vertex="1">
          <mxGeometry width="30" height="30" as="geometry">
            <mxRectangle width="30" height="30" as="alternateBounds" />
          </mxGeometry>
        </mxCell>
        <mxCell id="4imyPmRk3QcvIKr00t5q-91" value="session_type(work,break)" style="shape=partialRectangle;connectable=0;fillColor=none;top=0;left=0;bottom=0;right=0;align=left;spacingLeft=6;overflow=hidden;whiteSpace=wrap;html=1;labelBackgroundColor=none;strokeColor=#457B9D;fontColor=#1D3557;rounded=1;" parent="4imyPmRk3QcvIKr00t5q-89" vertex="1">
          <mxGeometry x="30" width="150" height="30" as="geometry">
            <mxRectangle width="150" height="30" as="alternateBounds" />
          </mxGeometry>
        </mxCell>
        <mxCell id="4imyPmRk3QcvIKr00t5q-92" value="duration(mins)" style="text;html=1;align=center;verticalAlign=middle;resizable=0;points=[];autosize=1;strokeColor=none;fillColor=none;labelBackgroundColor=none;fontColor=#1D3557;rounded=1;" parent="4imyPmRk3QcvIKr00t5q-99" vertex="1">
          <mxGeometry x="25" y="149.9957142857143" width="100" height="30" as="geometry" />
        </mxCell>
        <mxCell id="4imyPmRk3QcvIKr00t5q-96" value="timestamp" style="text;html=1;align=center;verticalAlign=middle;resizable=0;points=[];autosize=1;strokeColor=none;fillColor=none;labelBackgroundColor=none;fontColor=#1D3557;rounded=1;" parent="4imyPmRk3QcvIKr00t5q-99" vertex="1">
          <mxGeometry x="25" y="179.99714285714288" width="80" height="30" as="geometry" />
        </mxCell>
        <mxCell id="4imyPmRk3QcvIKr00t5q-98" value="" style="endArrow=none;html=1;rounded=1;labelBackgroundColor=none;strokeColor=#457B9D;fontColor=default;" parent="4imyPmRk3QcvIKr00t5q-99" edge="1">
          <mxGeometry width="50" height="50" relative="1" as="geometry">
            <mxPoint x="30" y="227.13857142857145" as="sourcePoint" />
            <mxPoint x="30" y="149.9957142857143" as="targetPoint" />
          </mxGeometry>
        </mxCell>
        <mxCell id="4imyPmRk3QcvIKr00t5q-185" value="custom_work" style="text;html=1;align=center;verticalAlign=middle;resizable=0;points=[];autosize=1;strokeColor=none;fillColor=none;fontColor=#1D3557;labelBackgroundColor=none;rounded=1;" parent="4imyPmRk3QcvIKr00t5q-99" vertex="1">
          <mxGeometry x="30" y="210" width="90" height="30" as="geometry" />
        </mxCell>
        <mxCell id="4imyPmRk3QcvIKr00t5q-186" value="custom_break" style="text;html=1;align=center;verticalAlign=middle;resizable=0;points=[];autosize=1;strokeColor=none;fillColor=none;fontColor=#1D3557;labelBackgroundColor=none;rounded=1;" parent="4imyPmRk3QcvIKr00t5q-99" vertex="1">
          <mxGeometry x="30" y="235" width="100" height="30" as="geometry" />
        </mxCell>
        <mxCell id="4imyPmRk3QcvIKr00t5q-187" value="" style="endArrow=none;html=1;rounded=1;strokeColor=#457B9D;fontColor=default;labelBackgroundColor=none;" parent="4imyPmRk3QcvIKr00t5q-99" edge="1">
          <mxGeometry width="50" height="50" relative="1" as="geometry">
            <mxPoint x="30" y="270" as="sourcePoint" />
            <mxPoint x="30" y="210" as="targetPoint" />
          </mxGeometry>
        </mxCell>
        <mxCell id="4imyPmRk3QcvIKr00t5q-117" value="" style="group;labelBackgroundColor=none;fontColor=#1D3557;rounded=1;" parent="1" vertex="1" connectable="0">
          <mxGeometry x="150" y="622.5" width="180" height="225" as="geometry" />
        </mxCell>
        <mxCell id="4imyPmRk3QcvIKr00t5q-100" value="Goal" style="shape=table;startSize=30;container=1;collapsible=1;childLayout=tableLayout;fixedRows=1;rowLines=0;fontStyle=1;align=center;resizeLast=1;html=1;labelBackgroundColor=none;fillColor=#A8DADC;strokeColor=#457B9D;fontColor=#1D3557;rounded=1;" parent="4imyPmRk3QcvIKr00t5q-117" vertex="1">
          <mxGeometry width="180" height="225" as="geometry" />
        </mxCell>
        <mxCell id="4imyPmRk3QcvIKr00t5q-101" value="" style="shape=tableRow;horizontal=0;startSize=0;swimlaneHead=0;swimlaneBody=0;fillColor=none;collapsible=0;dropTarget=0;points=[[0,0.5],[1,0.5]];portConstraint=eastwest;top=0;left=0;right=0;bottom=1;labelBackgroundColor=none;strokeColor=#457B9D;fontColor=#1D3557;rounded=1;" parent="4imyPmRk3QcvIKr00t5q-100" vertex="1">
          <mxGeometry y="30" width="180" height="30" as="geometry" />
        </mxCell>
        <mxCell id="4imyPmRk3QcvIKr00t5q-102" value="PK" style="shape=partialRectangle;connectable=0;fillColor=none;top=0;left=0;bottom=0;right=0;fontStyle=1;overflow=hidden;whiteSpace=wrap;html=1;labelBackgroundColor=none;strokeColor=#457B9D;fontColor=#1D3557;rounded=1;" parent="4imyPmRk3QcvIKr00t5q-101" vertex="1">
          <mxGeometry width="25" height="30" as="geometry">
            <mxRectangle width="25" height="30" as="alternateBounds" />
          </mxGeometry>
        </mxCell>
        <mxCell id="4imyPmRk3QcvIKr00t5q-103" value="Goal_ID" style="shape=partialRectangle;connectable=0;fillColor=none;top=0;left=0;bottom=0;right=0;align=left;spacingLeft=6;fontStyle=5;overflow=hidden;whiteSpace=wrap;html=1;labelBackgroundColor=none;strokeColor=#457B9D;fontColor=#1D3557;rounded=1;" parent="4imyPmRk3QcvIKr00t5q-101" vertex="1">
          <mxGeometry x="25" width="155" height="30" as="geometry">
            <mxRectangle width="155" height="30" as="alternateBounds" />
          </mxGeometry>
        </mxCell>
        <mxCell id="4imyPmRk3QcvIKr00t5q-104" value="" style="shape=tableRow;horizontal=0;startSize=0;swimlaneHead=0;swimlaneBody=0;fillColor=none;collapsible=0;dropTarget=0;points=[[0,0.5],[1,0.5]];portConstraint=eastwest;top=0;left=0;right=0;bottom=0;labelBackgroundColor=none;strokeColor=#457B9D;fontColor=#1D3557;rounded=1;" parent="4imyPmRk3QcvIKr00t5q-100" vertex="1">
          <mxGeometry y="60" width="180" height="30" as="geometry" />
        </mxCell>
        <mxCell id="4imyPmRk3QcvIKr00t5q-105" value="FK" style="shape=partialRectangle;connectable=0;fillColor=none;top=0;left=0;bottom=0;right=0;editable=1;overflow=hidden;whiteSpace=wrap;html=1;labelBackgroundColor=none;strokeColor=#457B9D;fontColor=#1D3557;rounded=1;" parent="4imyPmRk3QcvIKr00t5q-104" vertex="1">
          <mxGeometry width="25" height="30" as="geometry">
            <mxRectangle width="25" height="30" as="alternateBounds" />
          </mxGeometry>
        </mxCell>
        <mxCell id="4imyPmRk3QcvIKr00t5q-106" value="User_ID" style="shape=partialRectangle;connectable=0;fillColor=none;top=0;left=0;bottom=0;right=0;align=left;spacingLeft=6;overflow=hidden;whiteSpace=wrap;html=1;labelBackgroundColor=none;strokeColor=#457B9D;fontColor=#1D3557;rounded=1;" parent="4imyPmRk3QcvIKr00t5q-104" vertex="1">
          <mxGeometry x="25" width="155" height="30" as="geometry">
            <mxRectangle width="155" height="30" as="alternateBounds" />
          </mxGeometry>
        </mxCell>
        <mxCell id="4imyPmRk3QcvIKr00t5q-107" value="" style="shape=tableRow;horizontal=0;startSize=0;swimlaneHead=0;swimlaneBody=0;fillColor=none;collapsible=0;dropTarget=0;points=[[0,0.5],[1,0.5]];portConstraint=eastwest;top=0;left=0;right=0;bottom=0;labelBackgroundColor=none;strokeColor=#457B9D;fontColor=#1D3557;rounded=1;" parent="4imyPmRk3QcvIKr00t5q-100" vertex="1">
          <mxGeometry y="90" width="180" height="30" as="geometry" />
        </mxCell>
        <mxCell id="4imyPmRk3QcvIKr00t5q-108" value="" style="shape=partialRectangle;connectable=0;fillColor=none;top=0;left=0;bottom=0;right=0;editable=1;overflow=hidden;whiteSpace=wrap;html=1;labelBackgroundColor=none;strokeColor=#457B9D;fontColor=#1D3557;rounded=1;" parent="4imyPmRk3QcvIKr00t5q-107" vertex="1">
          <mxGeometry width="25" height="30" as="geometry">
            <mxRectangle width="25" height="30" as="alternateBounds" />
          </mxGeometry>
        </mxCell>
        <mxCell id="4imyPmRk3QcvIKr00t5q-109" value="goal_text" style="shape=partialRectangle;connectable=0;fillColor=none;top=0;left=0;bottom=0;right=0;align=left;spacingLeft=6;overflow=hidden;whiteSpace=wrap;html=1;labelBackgroundColor=none;strokeColor=#457B9D;fontColor=#1D3557;rounded=1;" parent="4imyPmRk3QcvIKr00t5q-107" vertex="1">
          <mxGeometry x="25" width="155" height="30" as="geometry">
            <mxRectangle width="155" height="30" as="alternateBounds" />
          </mxGeometry>
        </mxCell>
        <mxCell id="4imyPmRk3QcvIKr00t5q-110" value="" style="shape=tableRow;horizontal=0;startSize=0;swimlaneHead=0;swimlaneBody=0;fillColor=none;collapsible=0;dropTarget=0;points=[[0,0.5],[1,0.5]];portConstraint=eastwest;top=0;left=0;right=0;bottom=0;labelBackgroundColor=none;strokeColor=#457B9D;fontColor=#1D3557;rounded=1;" parent="4imyPmRk3QcvIKr00t5q-100" vertex="1">
          <mxGeometry y="120" width="180" height="30" as="geometry" />
        </mxCell>
        <mxCell id="4imyPmRk3QcvIKr00t5q-111" value="" style="shape=partialRectangle;connectable=0;fillColor=none;top=0;left=0;bottom=0;right=0;editable=1;overflow=hidden;whiteSpace=wrap;html=1;labelBackgroundColor=none;strokeColor=#457B9D;fontColor=#1D3557;rounded=1;" parent="4imyPmRk3QcvIKr00t5q-110" vertex="1">
          <mxGeometry width="25" height="30" as="geometry">
            <mxRectangle width="25" height="30" as="alternateBounds" />
          </mxGeometry>
        </mxCell>
        <mxCell id="4imyPmRk3QcvIKr00t5q-112" value="is_achieved" style="shape=partialRectangle;connectable=0;fillColor=none;top=0;left=0;bottom=0;right=0;align=left;spacingLeft=6;overflow=hidden;whiteSpace=wrap;html=1;labelBackgroundColor=none;strokeColor=#457B9D;fontColor=#1D3557;rounded=1;" parent="4imyPmRk3QcvIKr00t5q-110" vertex="1">
          <mxGeometry x="25" width="155" height="30" as="geometry">
            <mxRectangle width="155" height="30" as="alternateBounds" />
          </mxGeometry>
        </mxCell>
        <mxCell id="4imyPmRk3QcvIKr00t5q-180" value="created_at" style="text;html=1;align=center;verticalAlign=middle;resizable=0;points=[];autosize=1;strokeColor=none;fillColor=none;fontColor=#1D3557;labelBackgroundColor=none;rounded=1;" parent="4imyPmRk3QcvIKr00t5q-117" vertex="1">
          <mxGeometry x="25" y="155" width="80" height="30" as="geometry" />
        </mxCell>
        <mxCell id="4imyPmRk3QcvIKr00t5q-181" value="achieved_at" style="text;html=1;align=center;verticalAlign=middle;resizable=0;points=[];autosize=1;strokeColor=none;fillColor=none;fontColor=#1D3557;labelBackgroundColor=none;rounded=1;" parent="4imyPmRk3QcvIKr00t5q-117" vertex="1">
          <mxGeometry x="25" y="185" width="90" height="30" as="geometry" />
        </mxCell>
        <mxCell id="4imyPmRk3QcvIKr00t5q-183" value="" style="endArrow=none;html=1;rounded=1;strokeColor=#457B9D;fontColor=default;labelBackgroundColor=none;" parent="4imyPmRk3QcvIKr00t5q-117" edge="1">
          <mxGeometry width="50" height="50" relative="1" as="geometry">
            <mxPoint x="25" y="225" as="sourcePoint" />
            <mxPoint x="25" y="145" as="targetPoint" />
          </mxGeometry>
        </mxCell>
        <mxCell id="4imyPmRk3QcvIKr00t5q-176" value="" style="group;labelBackgroundColor=none;fontColor=#1D3557;rounded=1;" parent="1" vertex="1" connectable="0">
          <mxGeometry x="-80" y="900" width="180" height="270" as="geometry" />
        </mxCell>
        <mxCell id="4imyPmRk3QcvIKr00t5q-146" value="History" style="shape=table;startSize=30;container=1;collapsible=1;childLayout=tableLayout;fixedRows=1;rowLines=0;fontStyle=1;align=center;resizeLast=1;html=1;labelBackgroundColor=none;fillColor=#A8DADC;strokeColor=#457B9D;fontColor=#1D3557;rounded=1;" parent="4imyPmRk3QcvIKr00t5q-176" vertex="1">
          <mxGeometry width="180" height="270" as="geometry" />
        </mxCell>
        <mxCell id="4imyPmRk3QcvIKr00t5q-147" value="" style="shape=tableRow;horizontal=0;startSize=0;swimlaneHead=0;swimlaneBody=0;fillColor=none;collapsible=0;dropTarget=0;points=[[0,0.5],[1,0.5]];portConstraint=eastwest;top=0;left=0;right=0;bottom=1;labelBackgroundColor=none;strokeColor=#457B9D;fontColor=#1D3557;rounded=1;" parent="4imyPmRk3QcvIKr00t5q-146" vertex="1">
          <mxGeometry y="30" width="180" height="30" as="geometry" />
        </mxCell>
        <mxCell id="4imyPmRk3QcvIKr00t5q-148" value="PK" style="shape=partialRectangle;connectable=0;fillColor=none;top=0;left=0;bottom=0;right=0;fontStyle=1;overflow=hidden;whiteSpace=wrap;html=1;labelBackgroundColor=none;strokeColor=#457B9D;fontColor=#1D3557;rounded=1;" parent="4imyPmRk3QcvIKr00t5q-147" vertex="1">
          <mxGeometry width="30" height="30" as="geometry">
            <mxRectangle width="30" height="30" as="alternateBounds" />
          </mxGeometry>
        </mxCell>
        <mxCell id="4imyPmRk3QcvIKr00t5q-149" value="History_ID" style="shape=partialRectangle;connectable=0;fillColor=none;top=0;left=0;bottom=0;right=0;align=left;spacingLeft=6;fontStyle=5;overflow=hidden;whiteSpace=wrap;html=1;labelBackgroundColor=none;strokeColor=#457B9D;fontColor=#1D3557;rounded=1;" parent="4imyPmRk3QcvIKr00t5q-147" vertex="1">
          <mxGeometry x="30" width="150" height="30" as="geometry">
            <mxRectangle width="150" height="30" as="alternateBounds" />
          </mxGeometry>
        </mxCell>
        <mxCell id="4imyPmRk3QcvIKr00t5q-150" value="" style="shape=tableRow;horizontal=0;startSize=0;swimlaneHead=0;swimlaneBody=0;fillColor=none;collapsible=0;dropTarget=0;points=[[0,0.5],[1,0.5]];portConstraint=eastwest;top=0;left=0;right=0;bottom=0;labelBackgroundColor=none;strokeColor=#457B9D;fontColor=#1D3557;rounded=1;" parent="4imyPmRk3QcvIKr00t5q-146" vertex="1">
          <mxGeometry y="60" width="180" height="30" as="geometry" />
        </mxCell>
        <mxCell id="4imyPmRk3QcvIKr00t5q-151" value="FK" style="shape=partialRectangle;connectable=0;fillColor=none;top=0;left=0;bottom=0;right=0;editable=1;overflow=hidden;whiteSpace=wrap;html=1;labelBackgroundColor=none;strokeColor=#457B9D;fontColor=#1D3557;rounded=1;" parent="4imyPmRk3QcvIKr00t5q-150" vertex="1">
          <mxGeometry width="30" height="30" as="geometry">
            <mxRectangle width="30" height="30" as="alternateBounds" />
          </mxGeometry>
        </mxCell>
        <mxCell id="4imyPmRk3QcvIKr00t5q-152" value="User_ID" style="shape=partialRectangle;connectable=0;fillColor=none;top=0;left=0;bottom=0;right=0;align=left;spacingLeft=6;overflow=hidden;whiteSpace=wrap;html=1;labelBackgroundColor=none;strokeColor=#457B9D;fontColor=#1D3557;rounded=1;" parent="4imyPmRk3QcvIKr00t5q-150" vertex="1">
          <mxGeometry x="30" width="150" height="30" as="geometry">
            <mxRectangle width="150" height="30" as="alternateBounds" />
          </mxGeometry>
        </mxCell>
        <mxCell id="4imyPmRk3QcvIKr00t5q-153" value="" style="shape=tableRow;horizontal=0;startSize=0;swimlaneHead=0;swimlaneBody=0;fillColor=none;collapsible=0;dropTarget=0;points=[[0,0.5],[1,0.5]];portConstraint=eastwest;top=0;left=0;right=0;bottom=0;labelBackgroundColor=none;strokeColor=#457B9D;fontColor=#1D3557;rounded=1;" parent="4imyPmRk3QcvIKr00t5q-146" vertex="1">
          <mxGeometry y="90" width="180" height="30" as="geometry" />
        </mxCell>
        <mxCell id="4imyPmRk3QcvIKr00t5q-154" value="FK" style="shape=partialRectangle;connectable=0;fillColor=none;top=0;left=0;bottom=0;right=0;editable=1;overflow=hidden;whiteSpace=wrap;html=1;labelBackgroundColor=none;strokeColor=#457B9D;fontColor=#1D3557;rounded=1;" parent="4imyPmRk3QcvIKr00t5q-153" vertex="1">
          <mxGeometry width="30" height="30" as="geometry">
            <mxRectangle width="30" height="30" as="alternateBounds" />
          </mxGeometry>
        </mxCell>
        <mxCell id="4imyPmRk3QcvIKr00t5q-155" value="Task_ID" style="shape=partialRectangle;connectable=0;fillColor=none;top=0;left=0;bottom=0;right=0;align=left;spacingLeft=6;overflow=hidden;whiteSpace=wrap;html=1;labelBackgroundColor=none;strokeColor=#457B9D;fontColor=#1D3557;rounded=1;" parent="4imyPmRk3QcvIKr00t5q-153" vertex="1">
          <mxGeometry x="30" width="150" height="30" as="geometry">
            <mxRectangle width="150" height="30" as="alternateBounds" />
          </mxGeometry>
        </mxCell>
        <mxCell id="4imyPmRk3QcvIKr00t5q-173" value="Session_ID" style="text;html=1;align=center;verticalAlign=middle;resizable=0;points=[];autosize=1;strokeColor=none;fillColor=none;fontColor=#1D3557;labelBackgroundColor=none;rounded=1;" parent="4imyPmRk3QcvIKr00t5q-176" vertex="1">
          <mxGeometry x="35" y="119.9969142857143" width="80" height="30" as="geometry" />
        </mxCell>
        <mxCell id="4imyPmRk3QcvIKr00t5q-190" value="task_name" style="text;html=1;align=center;verticalAlign=middle;resizable=0;points=[];autosize=1;strokeColor=none;fillColor=none;fontColor=#1D3557;labelBackgroundColor=none;" parent="4imyPmRk3QcvIKr00t5q-176" vertex="1">
          <mxGeometry x="30" y="150.00051428571427" width="80" height="30" as="geometry" />
        </mxCell>
        <mxCell id="4imyPmRk3QcvIKr00t5q-192" value="duration" style="text;html=1;align=center;verticalAlign=middle;resizable=0;points=[];autosize=1;strokeColor=none;fillColor=none;fontColor=#1D3557;labelBackgroundColor=none;" parent="4imyPmRk3QcvIKr00t5q-176" vertex="1">
          <mxGeometry x="30" y="180.00514285714286" width="70" height="30" as="geometry" />
        </mxCell>
        <mxCell id="4imyPmRk3QcvIKr00t5q-193" value="" style="endArrow=none;html=1;rounded=0;strokeColor=#457B9D;fontColor=default;exitX=0;exitY=0.733;exitDx=0;exitDy=0;exitPerimeter=0;labelBackgroundColor=none;" parent="4imyPmRk3QcvIKr00t5q-176" edge="1">
          <mxGeometry width="50" height="50" relative="1" as="geometry">
            <mxPoint x="30.000000000000227" y="270" as="sourcePoint" />
            <mxPoint x="30" y="205.72714285714284" as="targetPoint" />
          </mxGeometry>
        </mxCell>
        <mxCell id="F8Qj2znFo5IEOlsu7R03-3" value="session_type" style="text;html=1;align=center;verticalAlign=middle;resizable=0;points=[];autosize=1;strokeColor=none;fillColor=none;" vertex="1" parent="4imyPmRk3QcvIKr00t5q-176">
          <mxGeometry x="30" y="210.01" width="90" height="30" as="geometry" />
        </mxCell>
        <mxCell id="F8Qj2znFo5IEOlsu7R03-2" value="FK" style="text;html=1;align=center;verticalAlign=middle;resizable=0;points=[];autosize=1;strokeColor=none;fillColor=none;" vertex="1" parent="4imyPmRk3QcvIKr00t5q-176">
          <mxGeometry x="-5" y="119.99691428571441" width="40" height="30" as="geometry" />
        </mxCell>
        <mxCell id="F8Qj2znFo5IEOlsu7R03-4" value="timestamp" style="text;html=1;align=center;verticalAlign=middle;resizable=0;points=[];autosize=1;strokeColor=none;fillColor=none;" vertex="1" parent="4imyPmRk3QcvIKr00t5q-176">
          <mxGeometry x="30" y="240" width="80" height="30" as="geometry" />
        </mxCell>
        <mxCell id="4imyPmRk3QcvIKr00t5q-175" value="" style="endArrow=none;html=1;rounded=1;strokeColor=#457B9D;fontColor=default;labelBackgroundColor=none;" parent="4imyPmRk3QcvIKr00t5q-176" edge="1">
          <mxGeometry width="50" height="50" relative="1" as="geometry">
            <mxPoint x="30" y="238.5714285714287" as="sourcePoint" />
            <mxPoint x="30" y="120.00000000000003" as="targetPoint" />
          </mxGeometry>
        </mxCell>
        <mxCell id="F8Qj2znFo5IEOlsu7R03-5" value="" style="edgeStyle=entityRelationEdgeStyle;fontSize=12;html=1;endArrow=ERoneToMany;startArrow=ERmandOne;rounded=0;exitX=1.002;exitY=0.113;exitDx=0;exitDy=0;exitPerimeter=0;" edge="1" parent="1" source="4imyPmRk3QcvIKr00t5q-29">
          <mxGeometry width="100" height="100" relative="1" as="geometry">
            <mxPoint x="-60" y="340" as="sourcePoint" />
            <mxPoint x="150" y="215" as="targetPoint" />
          </mxGeometry>
        </mxCell>
        <mxCell id="F8Qj2znFo5IEOlsu7R03-15" value="Text" style="edgeLabel;html=1;align=center;verticalAlign=middle;resizable=0;points=[];" vertex="1" connectable="0" parent="F8Qj2znFo5IEOlsu7R03-5">
          <mxGeometry x="-0.0441" relative="1" as="geometry">
            <mxPoint as="offset" />
          </mxGeometry>
        </mxCell>
        <mxCell id="F8Qj2znFo5IEOlsu7R03-16" value="has" style="edgeLabel;html=1;align=center;verticalAlign=middle;resizable=0;points=[];" vertex="1" connectable="0" parent="F8Qj2znFo5IEOlsu7R03-5">
          <mxGeometry x="-0.0377" y="2" relative="1" as="geometry">
            <mxPoint as="offset" />
          </mxGeometry>
        </mxCell>
        <mxCell id="F8Qj2znFo5IEOlsu7R03-6" value="" style="fontSize=12;html=1;endArrow=ERoneToMany;startArrow=ERmandOne;rounded=0;exitX=0.474;exitY=0.972;exitDx=0;exitDy=0;exitPerimeter=0;entryX=0.5;entryY=0;entryDx=0;entryDy=0;" edge="1" parent="1" target="4imyPmRk3QcvIKr00t5q-79">
          <mxGeometry width="100" height="100" relative="1" as="geometry">
            <mxPoint x="-269.55000000000007" y="339.99999999999994" as="sourcePoint" />
            <mxPoint x="-270.44999999999993" y="598.6800000000001" as="targetPoint" />
          </mxGeometry>
        </mxCell>
        <mxCell id="F8Qj2znFo5IEOlsu7R03-22" value="has" style="edgeLabel;html=1;align=center;verticalAlign=middle;resizable=0;points=[];" vertex="1" connectable="0" parent="F8Qj2znFo5IEOlsu7R03-6">
          <mxGeometry x="-0.3462" y="4" relative="1" as="geometry">
            <mxPoint as="offset" />
          </mxGeometry>
        </mxCell>
        <mxCell id="F8Qj2znFo5IEOlsu7R03-7" value="" style="fontSize=12;html=1;endArrow=ERoneToMany;startArrow=ERmandOne;rounded=0;elbow=vertical;" edge="1" parent="1">
          <mxGeometry width="100" height="100" relative="1" as="geometry">
            <mxPoint x="150" y="370" as="sourcePoint" />
            <mxPoint x="-180" y="620" as="targetPoint" />
            <Array as="points">
              <mxPoint x="-30" y="370" />
              <mxPoint x="-30" y="620" />
            </Array>
          </mxGeometry>
        </mxCell>
        <mxCell id="F8Qj2znFo5IEOlsu7R03-19" value="has" style="edgeLabel;html=1;align=center;verticalAlign=middle;resizable=0;points=[];" vertex="1" connectable="0" parent="F8Qj2znFo5IEOlsu7R03-7">
          <mxGeometry x="0.0143" y="2" relative="1" as="geometry">
            <mxPoint as="offset" />
          </mxGeometry>
        </mxCell>
        <mxCell id="F8Qj2znFo5IEOlsu7R03-8" value="" style="fontSize=12;html=1;endArrow=ERoneToMany;startArrow=ERmandOne;rounded=0;exitX=1;exitY=0.5;exitDx=0;exitDy=0;entryX=-0.003;entryY=0.063;entryDx=0;entryDy=0;entryPerimeter=0;" edge="1" parent="1" source="4imyPmRk3QcvIKr00t5q-33" target="4imyPmRk3QcvIKr00t5q-146">
          <mxGeometry width="100" height="100" relative="1" as="geometry">
            <mxPoint x="-140" y="270" as="sourcePoint" />
            <mxPoint x="-80" y="990" as="targetPoint" />
            <Array as="points">
              <mxPoint x="-120" y="270" />
              <mxPoint x="-120" y="917" />
            </Array>
          </mxGeometry>
        </mxCell>
        <mxCell id="F8Qj2znFo5IEOlsu7R03-14" value="\" style="edgeLabel;html=1;align=center;verticalAlign=middle;resizable=0;points=[];" vertex="1" connectable="0" parent="F8Qj2znFo5IEOlsu7R03-8">
          <mxGeometry x="-0.4967" y="4" relative="1" as="geometry">
            <mxPoint as="offset" />
          </mxGeometry>
        </mxCell>
        <mxCell id="F8Qj2znFo5IEOlsu7R03-17" value="has" style="edgeLabel;html=1;align=center;verticalAlign=middle;resizable=0;points=[];" vertex="1" connectable="0" parent="F8Qj2znFo5IEOlsu7R03-8">
          <mxGeometry x="-0.4986" y="-2" relative="1" as="geometry">
            <mxPoint as="offset" />
          </mxGeometry>
        </mxCell>
        <mxCell id="F8Qj2znFo5IEOlsu7R03-9" value="" style="fontSize=12;html=1;endArrow=ERmandOne;startArrow=ERmandOne;rounded=0;entryX=0;entryY=0.5;entryDx=0;entryDy=0;" edge="1" parent="1" target="4imyPmRk3QcvIKr00t5q-153">
          <mxGeometry width="100" height="100" relative="1" as="geometry">
            <mxPoint x="-180" y="810" as="sourcePoint" />
            <mxPoint x="-30" y="810" as="targetPoint" />
            <Array as="points">
              <mxPoint x="-140" y="810" />
              <mxPoint x="-140" y="1005" />
            </Array>
          </mxGeometry>
        </mxCell>
        <mxCell id="F8Qj2znFo5IEOlsu7R03-20" value="corresponds to" style="edgeLabel;html=1;align=center;verticalAlign=middle;resizable=0;points=[];" vertex="1" connectable="0" parent="F8Qj2znFo5IEOlsu7R03-9">
          <mxGeometry x="-0.0809" y="1" relative="1" as="geometry">
            <mxPoint y="34" as="offset" />
          </mxGeometry>
        </mxCell>
        <mxCell id="F8Qj2znFo5IEOlsu7R03-10" value="" style="fontSize=12;html=1;endArrow=ERoneToMany;startArrow=ERmandOne;rounded=0;entryX=0.889;entryY=0;entryDx=0;entryDy=0;entryPerimeter=0;" edge="1" parent="1" target="4imyPmRk3QcvIKr00t5q-146">
          <mxGeometry width="100" height="100" relative="1" as="geometry">
            <mxPoint x="150" y="400" as="sourcePoint" />
            <mxPoint x="80" y="900" as="targetPoint" />
            <Array as="points">
              <mxPoint x="80" y="400" />
            </Array>
          </mxGeometry>
        </mxCell>
        <mxCell id="F8Qj2znFo5IEOlsu7R03-21" value="can have" style="edgeLabel;html=1;align=center;verticalAlign=middle;resizable=0;points=[];" vertex="1" connectable="0" parent="F8Qj2znFo5IEOlsu7R03-10">
          <mxGeometry x="0.2365" y="3" relative="1" as="geometry">
            <mxPoint as="offset" />
          </mxGeometry>
        </mxCell>
        <mxCell id="F8Qj2znFo5IEOlsu7R03-11" value="" style="fontSize=12;html=1;endArrow=ERoneToMany;startArrow=ERmandOne;rounded=0;" edge="1" parent="1">
          <mxGeometry width="100" height="100" relative="1" as="geometry">
            <mxPoint x="-270" y="198" as="sourcePoint" />
            <mxPoint x="330" y="640" as="targetPoint" />
            <Array as="points">
              <mxPoint x="-270" y="160" />
              <mxPoint x="400" y="160" />
              <mxPoint x="400" y="640" />
            </Array>
          </mxGeometry>
        </mxCell>
        <mxCell id="F8Qj2znFo5IEOlsu7R03-18" value="has" style="edgeLabel;html=1;align=center;verticalAlign=middle;resizable=0;points=[];" vertex="1" connectable="0" parent="F8Qj2znFo5IEOlsu7R03-11">
          <mxGeometry x="-0.4802" y="1" relative="1" as="geometry">
            <mxPoint as="offset" />
          </mxGeometry>
        </mxCell>
      </root>
    </mxGraphModel>
  </diagram>
</mxfile>
